<svg width="130" height="35" viewBox="0 0 130 35" fill="none" xmlns="http://www.w3.org/2000/svg">
<path d="M19.2077 16.6433C16.3315 21.3441 11.9561 25.915 6.07365 25.915C2.48224 25.915 0 23.6295 0 19.9721C0 14.033 5.68353 5.80469 12.0861 5.80469C13.8493 5.80469 14.8973 6.65313 14.8973 8.47994C14.8973 13.9642 7.51557 16.7044 3.13627 17.6866C2.81117 18.795 2.54726 20.0371 2.54726 21.2103C2.54726 23.4958 3.59141 25.2576 6.07365 25.2576C11.6922 25.2576 15.8075 20.6218 18.6187 16.2497L19.2077 16.6395V16.6433ZM13.0002 8.15509C13.0002 7.30665 12.6063 6.52318 11.6271 6.52318C7.44672 6.52318 4.37547 13.8343 3.33133 16.9682C7.51174 15.791 13.0002 13.2457 13.0002 8.15509Z" fill="#1E2257"/>
<path d="M42.2481 25.9118V4.02817H42.1411L33.4169 25.9118H31.1374L22.3787 4.02817H22.3099V25.9118H18.5234V0H24.4823L32.2618 19.8542L40.0757 0H46.0308V25.9118H42.2481Z" fill="#1E2257"/>
<path d="M58.47 26.0586C53.0733 26.0586 48.2656 21.461 48.2656 16.0684C48.2656 10.2287 52.8668 5.90625 58.7453 5.90625C64.0387 5.90625 69.0185 10.0529 68.9497 16.1372C68.8808 21.2546 64.5895 26.0586 58.47 26.0586ZM58.5732 9.19299C54.9742 9.19299 51.8609 12.2351 51.8609 15.969C51.8609 19.7029 54.8709 22.7795 58.5006 22.7795C62.1302 22.7795 65.3506 19.8061 65.3506 15.9346C65.3506 12.0632 62.3406 9.19299 58.5694 9.19299H58.5732Z" fill="#1E2257"/>
<path d="M84.9408 26.0931V15.3806C84.9408 11.2302 83.3076 9.28106 80.0413 9.28106C76.8094 9.28106 74.8588 11.6582 74.8588 15.3463V26.0931H71.168V6.44529H74.6102V8.53964H74.6829C76.1363 6.65931 78.1595 5.91406 80.4314 5.91406C85.1511 5.91406 88.6316 8.89506 88.6316 14.322V26.097H84.9408V26.0931Z" fill="#1E2257"/>
<path d="M94.4741 17.6372C95.3041 20.8169 97.8284 22.8578 100.77 22.8578C103.019 22.8578 105.13 21.6845 106.235 19.6436H109.834C108.346 23.5839 104.751 26.1407 100.632 26.1407C95.2353 26.1407 90.8789 21.3711 90.8789 16.2575C90.8789 10.2076 95.4456 5.99219 100.529 5.99219C106.166 5.99219 110.458 10.349 110.458 15.8448C110.458 16.4333 110.458 16.9875 110.354 17.641H94.478L94.4741 17.6372ZM106.859 14.8702C106.583 11.6217 103.711 9.27129 100.632 9.27129C97.6907 9.27129 94.7533 11.5873 94.4741 14.8702H106.859Z" fill="#1E2257"/>
<path d="M129.002 6.08594H125.127L119.352 20.9451L113.714 6.08594H109.84L117.482 24.851L116.089 28.2256H116.086L113.286 34.9978H117.023L120.059 27.6676H120.056L129.002 6.08594Z" fill="#1E2257"/>
</svg>
