<?xml version="1.0" encoding="UTF-8"?>
<svg id="Layer_2" data-name="Layer 2" xmlns="http://www.w3.org/2000/svg" viewBox="0 0 292.49 95.83">
  <defs>
    <style>
      .cls-1 {
        fill: #373737;
      }

      .cls-2 {
        fill: #373737;
      }

      .cls-3 {
        fill: #0063cc;
      }
    </style>
  </defs>
  <g id="Files">
    <g>
      <path class="cls-3" d="M292.49,22.86l-18.21-.83,12.24-13.59-2.4-2.4-13.59,12.24-.83-18.29h-3.75l-.82,18.21c-5.57-5.11-12.51-11.47-13.43-12.32l-2.72,2.72,12.2,13.31-36.65.94v3.76l36.65.94-12.2,13.32,2.69,2.69,13.45-12.32.84,18.22h3.75s.8-18.13.8-18.13c5.67,5.15,12.73,11.57,13.46,12.23l2.65-2.67-12.38-13.46,18.23-.83v-3.75Z"/>
      <path class="cls-2" d="M0,60.63C0,38.12,16.6,24.1,36.87,24.1c19.03,0,35.53,12.78,35.53,35.2s-16.5,36.54-36.87,36.54C16.6,95.83,0,83.05,0,60.63ZM55.9,60.35c0-20.8-6.63-32.46-19.89-32.46s-19.41,11.28-19.41,31.7,6.63,32.46,19.98,32.46,19.31-11.19,19.31-31.7Z"/>
      <path class="cls-2" d="M111.6,47.61l-.09,10.4c-2.47-1.34-4.52-1.53-6.6-1.24-4.72.66-8.68,3.43-10.21,8.68v29.53h-12.89v-47.08l12.51-1.15v12.12c2.83-8.58,9.82-11.57,15.08-11.57.99,0,2.19.3,2.19.3Z"/>
      <path class="cls-2" d="M141.21,71.58c0-16.31,12.62-24.83,24.68-24.83,11.3,0,23.92,7.85,23.92,24.26s-12.62,24.83-24.68,24.83c-11.3,0-23.92-7.85-23.92-24.26ZM177.2,71.67c0-15.45-3.76-22.2-11.87-22.2s-11.49,6.36-11.49,21.63,3.76,22.13,11.78,22.13,11.59-6.48,11.59-21.55Z"/>
      <path class="cls-1" d="M243.17,65.21v29.72h-12.89v-31.06c0-2.97.01-6.32-1.79-8.84-1.83-2.56-5.24-3.68-8.32-3.13-3.52.63-6.76,3.9-8.85,6.65l-1.07,1.39c0-.36,0,34.99,0,34.99h-12.89v-47.05l12.89-1.18s0,7.03,0,7.03c0,0,1.23-1.32,1.47-1.54.56-.53,1.14-1.02,1.76-1.48,1.22-.91,2.51-1.86,3.9-2.48,7.88-3.5,17.36-1.75,22.96,5.08,2.65,3.23,2.84,7.91,2.84,11.9Z"/>
      <polygon class="cls-2" points="119.16 47.93 132.06 46.75 132.06 94.98 119.16 94.98 119.16 47.93"/>
      <circle class="cls-2" cx="125.61" cy="31.81" r="7.01"/>
    </g>
  </g>
</svg>